<?xml version="1.0" encoding="utf-8"?>
<!-- Generator: Adobe Illustrator 26.5.0, SVG Export Plug-In . SVG Version: 6.00 Build 0)  -->
<svg version="1.1" id="Lag_1" xmlns="http://www.w3.org/2000/svg" xmlns:xlink="http://www.w3.org/1999/xlink" x="0px" y="0px"
	 width="200px" height="68.3px" viewBox="0 0 200 68.3" style="enable-background:new 0 0 200 68.3;" xml:space="preserve">
<style type="text/css">
	.st0{fill:#FFFFFF;}
	.st1{fill:#2E99D9;}
	.st2{fill:#14143C;}
</style>
<path class="st0" d="M181.8,0.6c10.6,2.6,18.2,12,18.2,23.1v6.1c0,13.1-10.7,23.8-23.8,23.8H52.9l-5.6,14.8l-5.6-14.8h-18
	C10.7,53.5,0,42.9,0,29.8v-6.1C0,11.3,9.5,1.1,21.7,0L181.8,0.6z"/>
<g id="logo">
	<link  id="dark-mode-custom-link" rel="stylesheet" type="text/css" xmlns=""></link>
	<link  id="dark-mode-general-link" rel="stylesheet" type="text/css" xmlns=""></link>
</g>
<g id="Lag_2_00000081627724414745916380000014341785801220856722_">
	<path class="st1" d="M175.9,51.4H23.4c-11.9,0-21.5-9.6-21.5-21.5v-6.1C1.9,12,11.5,2.3,23.4,2.3h152.5c11.9,0,21.5,9.6,21.5,21.5
		v6.1C197.4,41.8,187.7,51.4,175.9,51.4z"/>
	<path class="st1" d="M40.2,44L47,62l6.8-18.1C53.8,44.1,40.2,44,40.2,44z"/>
	<g>
		<path class="st2" d="M56.5,30.9c0.7,0,1.2-0.2,1.7-0.5c0.5-0.3,0.9-0.8,1.3-1.3l1.3,0.4c-0.5,0.8-1.1,1.4-1.7,1.9
			c-0.7,0.5-1.6,0.6-2.6,0.6c-1.7,0-2.9-0.5-3.8-1.7s-1.4-2.6-1.4-4.6c0-1.9,0.5-3.5,1.4-4.5c1-1.1,2.2-1.7,3.8-1.7
			c0.9,0,1.7,0.2,2.4,0.6c0.8,0.4,1.3,1,1.7,1.7l-1.4,0.4c-0.3-0.5-0.8-0.8-1.2-1.1s-1-0.4-1.6-0.4c-1.2,0-2.1,0.5-2.8,1.4
			c-0.7,0.9-1.1,2.1-1.1,3.7c0,1.6,0.4,2.8,1.1,3.7C54.4,30.5,55.3,30.9,56.5,30.9z"/>
		<path class="st2" d="M64.3,31.9h-1.4v-12l1.4-0.6V24c0.3-0.3,0.7-0.6,1.2-0.8c0.5-0.2,1.1-0.3,1.7-0.3c0.9,0,1.7,0.3,2.2,0.8
			c0.5,0.6,0.8,1.4,0.8,2.3v5.9h-1.4v-5.9c0-0.6-0.2-1.1-0.5-1.4c-0.4-0.4-0.8-0.5-1.4-0.5c-0.5,0-0.9,0.1-1.4,0.3
			c-0.5,0.2-0.8,0.5-1.1,0.8L64.3,31.9L64.3,31.9z"/>
		<path class="st2" d="M80.3,31.9h-1.4v-0.8c-0.3,0.3-0.8,0.5-1.2,0.8c-0.5,0.2-1,0.3-1.4,0.3c-1.2,0-2.2-0.4-2.9-1.2
			c-0.7-0.8-1.1-2-1.1-3.4c0-1.4,0.4-2.6,1.1-3.4c0.8-0.8,1.7-1.3,2.9-1.3c0.5,0,1,0.1,1.4,0.3c0.5,0.2,0.9,0.5,1.2,0.8v-0.8h1.4
			V31.9z M76.5,30.9c0.4,0,0.8-0.1,1.3-0.3c0.5-0.2,0.8-0.5,1.2-0.8V25c-0.4-0.3-0.8-0.6-1.3-0.8c-0.5-0.2-0.8-0.3-1.3-0.3
			c-0.8,0-1.5,0.3-2,0.9s-0.8,1.5-0.8,2.6c0,1.1,0.2,2,0.8,2.6C75,30.6,75.6,30.9,76.5,30.9z"/>
		<path class="st2" d="M85.1,31.9h-1.4v-7.7h-1.7V23h1.7v-2.2l1.4-0.3V23h1.8v1.1h-1.8V31.9z"/>
		<path class="st2" d="M94.1,31.9h-1.4V23h1.4v1c0.3-0.3,0.7-0.6,1.1-0.8c0.5-0.2,1-0.3,1.5-0.3c0.6,0,1.1,0.2,1.6,0.4
			c0.5,0.2,0.8,0.6,1,1.1c0.4-0.5,0.8-0.8,1.4-1.1c0.5-0.2,1.1-0.4,1.7-0.4c1,0,1.7,0.3,2.2,0.8c0.5,0.5,0.8,1.4,0.8,2.4V32h-1.4V26
			c0-0.6-0.2-1.1-0.5-1.4c-0.3-0.3-0.8-0.5-1.4-0.5c-0.4,0-0.8,0.1-1.3,0.3c-0.5,0.2-0.8,0.5-1.1,0.8c0,0.2,0,0.4,0.1,0.5
			c0.1,0.2,0,0.4,0,0.5V32h-1.4V26c0-0.6-0.2-1.1-0.5-1.4c-0.3-0.3-0.8-0.5-1.4-0.5c-0.4,0-0.8,0.1-1.3,0.3
			c-0.5,0.2-0.8,0.5-1.1,0.8v6.8C94.2,31.9,94.1,31.9,94.1,31.9z"/>
		<path class="st2" d="M111.5,30.9c0.5,0,0.9-0.1,1.3-0.2c0.4-0.2,0.8-0.4,1-0.8l1.4,0.3c-0.4,0.6-0.8,1.1-1.4,1.4
			c-0.6,0.3-1.4,0.5-2.1,0.5c-1.3,0-2.3-0.4-3-1.2c-0.8-0.8-1.1-2-1.1-3.5c0-1.4,0.4-2.5,1.1-3.3c0.8-0.8,1.7-1.2,2.9-1.2
			c1.2,0,2.2,0.4,2.9,1.2c0.7,0.8,1,2,1,3.5v0.3h-6.5c0,1,0.3,1.7,0.8,2.3C110.1,30.7,110.7,30.9,111.5,30.9z M111.4,24
			c-0.8,0-1.4,0.2-1.8,0.8c-0.5,0.5-0.8,1.1-0.8,2h5.1c-0.1-0.9-0.3-1.5-0.8-2C112.7,24.3,112.1,24,111.4,24z"/>
		<path class="st2" d="M125,31.9h-1.4V31c-0.4,0.3-0.8,0.6-1.3,0.8c-0.5,0.2-1,0.3-1.4,0.3c-1.2,0-2.2-0.4-2.9-1.2
			c-0.7-0.8-1.1-2-1.1-3.4c0-1.4,0.4-2.6,1.1-3.4c0.8-0.8,1.7-1.3,2.9-1.3c0.5,0,0.9,0.1,1.4,0.3c0.5,0.2,0.9,0.5,1.2,0.8v-4.1
			l1.4-0.6L125,31.9L125,31.9z M121.2,30.9c0.4,0,0.8-0.1,1.3-0.3c0.5-0.2,0.8-0.5,1.2-0.8V25c-0.4-0.3-0.8-0.5-1.2-0.8
			c-0.5-0.2-0.9-0.3-1.3-0.3c-0.9,0-1.5,0.3-2,0.9c-0.5,0.6-0.8,1.5-0.8,2.6c0,1.1,0.2,2,0.8,2.6C119.7,30.5,120.3,30.9,121.2,30.9z
			"/>
		<path class="st2" d="M139.9,27.4c0,1.4-0.4,2.6-1.1,3.4s-1.7,1.3-3,1.3c-1.3,0-2.3-0.5-3.1-1.3c-0.8-0.8-1.1-2-1.1-3.4
			c0-1.4,0.4-2.5,1.1-3.3c0.8-0.8,1.8-1.3,3-1.3c1.3,0,2.3,0.5,3,1.3C139.5,24.9,139.9,26,139.9,27.4z M132.9,27.4
			c0,1.1,0.2,1.9,0.8,2.5c0.5,0.6,1.2,1,2,1s1.5-0.3,2-1c0.5-0.6,0.8-1.5,0.8-2.5c0-1.1-0.2-1.9-0.8-2.6c-0.5-0.6-1.2-1-2-1
			c-0.8,0-1.5,0.3-2,1C133.2,25.6,132.9,26.4,132.9,27.4z"/>
		<path class="st2" d="M144.8,32.1c-0.7,0-1.3-0.1-2-0.3c-0.7-0.2-1.1-0.5-1.5-0.8l0.9-0.9c0.4,0.3,0.8,0.5,1.2,0.7
			c0.5,0.2,0.9,0.2,1.4,0.2c0.7,0,1.2-0.2,1.6-0.4c0.4-0.3,0.6-0.7,0.6-1.1c0-0.5-0.2-0.8-0.5-1c-0.3-0.2-1-0.4-2.1-0.5
			c-1.1-0.2-1.8-0.5-2.3-0.8c-0.5-0.4-0.7-1-0.7-1.7c0-0.8,0.3-1.4,0.9-1.9s1.4-0.7,2.5-0.7c0.7,0,1.2,0.1,1.7,0.2
			c0.5,0.2,1,0.4,1.4,0.7l-0.8,0.9c-0.3-0.2-0.7-0.4-1-0.5c-0.4-0.2-0.8-0.2-1.2-0.2c-0.6,0-1.1,0.2-1.5,0.4s-0.5,0.6-0.5,1
			c0,0.5,0.2,0.8,0.5,1c0.3,0.2,0.9,0.4,1.8,0.5c1.2,0.2,2,0.5,2.6,0.8c0.5,0.4,0.8,1,0.8,1.7c0,0.9-0.3,1.6-1,2
			C146.9,31.8,145.9,32.1,144.8,32.1z"/>
	</g>
</g>
</svg>
