<?xml version="1.0" encoding="UTF-8"?>
<!-- Generator: Adobe Illustrator 22.0.1, SVG Export Plug-In . SVG Version: 6.00 Build 0)  -->
<svg version="1.1" id="Lag_1" xmlns="http://www.w3.org/2000/svg" xmlns:xlink="http://www.w3.org/1999/xlink" x="0px" y="0px" width="18.4px" height="15px" viewBox="0 0 18.4 15" style="enable-background:new 0 0 18.4 15;" xml:space="preserve">
<style type="text/css">
	.st0{fill:#FFFFFF;}
</style>
<g id="Lag_1_1_">
	<path class="st0" d="M18.4,1.8c-0.6,0.3-1.4,0.5-2.1,0.6c0.8-0.5,1.4-1.2,1.7-2.1c-0.6,0.4-1.6,0.8-2.4,0.9C14.9,0.6,13.8,0,12.7,0   C10.6,0,9,1.7,9,3.8C9,4,9,4.4,9,4.7c-3.1-0.1-6-1.6-7.8-3.9C0.9,1.4,0.7,2,0.7,2.7c0,1.3,0.6,2.5,1.7,3.2c-0.6,0-1.2-0.2-1.7-0.5   l0,0c0,1.9,1.3,3.4,3.1,3.8c-0.3,0.1-0.6,0.1-1,0.1c-0.2,0-0.5,0-0.6-0.1c0.5,1.5,1.9,2.6,3.6,2.7c-1.3,1-3,1.6-4.7,1.6   c-0.3,0-0.6,0-0.9-0.1c1.7,1,3.6,1.6,5.9,1.6c7,0,10.8-5.8,10.8-10.8c0-0.2,0-0.3,0-0.5C17.2,3.3,17.9,2.7,18.4,1.8z"/>
</g>
<g id="tekst">
</g>
</svg>