<?xml version="1.0" encoding="UTF-8"?>
<!-- Generator: Adobe Illustrator 22.0.1, SVG Export Plug-In . SVG Version: 6.00 Build 0)  -->
<svg version="1.1" id="Lag_1" xmlns="http://www.w3.org/2000/svg" xmlns:xlink="http://www.w3.org/1999/xlink" x="0px" y="0px" width="18.7px" height="14px" viewBox="0 0 18.7 14" style="enable-background:new 0 0 18.7 14;" xml:space="preserve">
<style type="text/css">
	.st0{fill:#FFFFFF;}
</style>
<g id="Lag_1_1_">
	<g>
		<g>
			<path class="st0" d="M7,10.4l5.8-3.5L7,3.4V10.4z M18.7,7.7c0,1.6-0.2,3.2-0.2,3.2s-0.2,1.5-0.7,1.9c-0.7,0.7-1.6,0.7-1.9,0.9     C13.3,14,9.2,14,9.2,14s-4.9,0-6.3-0.2c-0.4-0.2-1.3,0-2.1-0.9C0.4,12.2,0.1,11,0.1,11S0,9.5,0,7.8V6.3c0-1.6,0.2-3.2,0.2-3.2     s0.2-1.5,0.7-1.9c0.7-0.7,1.6-0.7,1.9-0.9C5.3,0,9.2,0,9.2,0s3.8,0,6.6,0.2c0.4,0,1.1,0,1.9,0.9C18.3,1.8,18.5,3,18.5,3     s0.2,1.6,0.2,3.2V7.7z"/>
		</g>
	</g>
</g>
<g id="tekst">
</g>
</svg>