<?xml version="1.0" encoding="utf-8"?>
<!-- Generator: Adobe Illustrator 18.0.0, SVG Export Plug-In . SVG Version: 6.00 Build 0)  -->
<!DOCTYPE svg PUBLIC "-//W3C//DTD SVG 1.1//EN" "http://www.w3.org/Graphics/SVG/1.1/DTD/svg11.dtd" [
	<!ENTITY ns_extend "http://ns.adobe.com/Extensibility/1.0/">
	<!ENTITY ns_ai "http://ns.adobe.com/AdobeIllustrator/10.0/">
	<!ENTITY ns_graphs "http://ns.adobe.com/Graphs/1.0/">
	<!ENTITY ns_vars "http://ns.adobe.com/Variables/1.0/">
	<!ENTITY ns_imrep "http://ns.adobe.com/ImageReplacement/1.0/">
	<!ENTITY ns_sfw "http://ns.adobe.com/SaveForWeb/1.0/">
	<!ENTITY ns_custom "http://ns.adobe.com/GenericCustomNamespace/1.0/">
	<!ENTITY ns_adobe_xpath "http://ns.adobe.com/XPath/1.0/">
]>
<svg version="1.1" id="Lag_1" xmlns:x="&ns_extend;" xmlns:i="&ns_ai;" xmlns:graph="&ns_graphs;"
	 xmlns="http://www.w3.org/2000/svg" xmlns:xlink="http://www.w3.org/1999/xlink" x="0px" y="0px" width="40px" height="40px"
	 viewBox="0 0 40 40" enable-background="new 0 0 40 40" xml:space="preserve">
<metadata>
	<sfw  xmlns="&ns_sfw;">
		<slices></slices>
		<sliceSourceBounds  height="39.2" width="29.7" x="5.3" y="0.6" bottomLeftOrigin="true"></sliceSourceBounds>
	</sfw>
</metadata>
<path fill="#FFFFFF" d="M31.3,16.4h-0.1l0-5.2c0-6.1-4.9-11-11-11c-6.1,0-11,4.9-11,11v5.1H9c-2.1,0-3.7,1.7-3.7,3.8v9.6
	c0,5.3,4.3,9.7,9.6,9.7h10.4c5.3,0,9.7-4.3,9.7-9.7v-9.6C35.1,18.1,33.4,16.4,31.3,16.4z M22.3,28.6v4.9c0,0.9-0.7,1.6-1.6,1.6h-1.1
	c-0.9,0-1.6-0.7-1.6-1.6v-4.9c-1.3-0.7-2.2-2.1-2.2-3.8c0-2.4,1.9-4.3,4.3-4.3c2.4,0,4.3,1.9,4.3,4.3C24.5,26.5,23.6,27.9,22.3,28.6
	z M13.6,16.4v-5c0-3.6,2.9-6.5,6.6-6.5c3.6,0,6.6,2.9,6.6,6.5v5H13.6z"/>
</svg>
