<?xml version="1.0" encoding="utf-8"?>
<!-- Generator: Adobe Illustrator 18.0.0, SVG Export Plug-In . SVG Version: 6.00 Build 0)  -->
<!DOCTYPE svg PUBLIC "-//W3C//DTD SVG 1.1//EN" "http://www.w3.org/Graphics/SVG/1.1/DTD/svg11.dtd" [
	<!ENTITY ns_extend "http://ns.adobe.com/Extensibility/1.0/">
	<!ENTITY ns_ai "http://ns.adobe.com/AdobeIllustrator/10.0/">
	<!ENTITY ns_graphs "http://ns.adobe.com/Graphs/1.0/">
	<!ENTITY ns_vars "http://ns.adobe.com/Variables/1.0/">
	<!ENTITY ns_imrep "http://ns.adobe.com/ImageReplacement/1.0/">
	<!ENTITY ns_sfw "http://ns.adobe.com/SaveForWeb/1.0/">
	<!ENTITY ns_custom "http://ns.adobe.com/GenericCustomNamespace/1.0/">
	<!ENTITY ns_adobe_xpath "http://ns.adobe.com/XPath/1.0/">
]>
<svg version="1.1" id="Lag_1" xmlns:x="&ns_extend;" xmlns:i="&ns_ai;" xmlns:graph="&ns_graphs;"
	 xmlns="http://www.w3.org/2000/svg" xmlns:xlink="http://www.w3.org/1999/xlink" x="0px" y="0px" width="34.3px" height="34.3px"
	 viewBox="0 0 34.3 34.3" enable-background="new 0 0 34.3 34.3" xml:space="preserve">
<metadata>
	<sfw  xmlns="&ns_sfw;">
		<slices></slices>
		<sliceSourceBounds  width="26" height="32.8" y="1264.3" x="469" bottomLeftOrigin="true"></sliceSourceBounds>
	</sfw>
</metadata>
<g>
	<g id="Layer_5_45_">
		<path fill="#14364C" d="M27,33.5l4.1-5.2c0.2-0.2,0.1-0.4-0.2-0.4h-1.7c-0.3,0-0.5-0.2-0.5-0.5v-3.2v-0.5l0,0
			c0-0.3-0.2-0.5-0.5-0.5h-2.9c-0.3,0-0.5,0.2-0.5,0.5v3.7c0,0.3-0.3,0.5-0.6,0.5h-1.7c-0.3,0-0.4,0.2-0.2,0.4l4.1,5.2
			C26.5,33.7,26.8,33.7,27,33.5z"/>
	</g>
	<path fill="#14364C" d="M19.8,32.1H11c-2.2,0-4-1.8-4-4V13.2h2.2v14.9c0,1,0.8,1.8,1.8,1.8h8.8c0.4,0,0.7,0.3,0.7,0.7v0.8
		C20.5,31.7,20.2,32.1,19.8,32.1z"/>
	<path fill="#14364C" d="M32.4,26.3h-0.8c-0.4,0-0.7-0.3-0.7-0.7V10.1h-5.2c-1,0-1.8-0.8-1.8-1.8V3.1H11c-1,0-1.8,0.8-1.8,1.8v8.3H7
		V4.9c0-2.2,1.8-4,4-4h13.3c0.7,0,1.5,0.3,2,0.8l5.9,5.9c0.5,0.5,0.8,1.3,0.8,2v16C33.1,26,32.7,26.3,32.4,26.3z"/>
	<g id="Layer_x0020_1">
		<path fill="#14364C" d="M19.5,9.2c0,0-0.1,0.4-0.2,1.1c-0.2,0.7-0.3,1-0.3,1s-0.4-1.1-0.5-2.5s-0.1-1.9,0.2-2.2
			C19,6.2,19.4,7,19.5,7.3s0.2,1.1,0.2,1.1s0.2-0.8,0.1-1.5s-1.1-0.7-1.1-0.7s-1.2,0-1.2,0.9s-0.1,1.2,0.2,2.8
			c0.2,1.1,0.4,2.1,0.5,2.6l0,0c0,0,0,0,0,0.1s0.1,0.2,0.1,0.2s-0.7,1.7-2.3,5s-3,5-3.5,5.5s-1.7,1.3-1.4,0.6
			c0.3-0.7,1.1-1.8,1.7-2.3c0.7-0.5,1.1-0.9,1.1-0.9s0.2-0.3-0.3-0.1c-0.5,0.2-1.7,1-2.5,1.9c-0.8,1-1,1.3-0.6,1.7
			c0.4,0.4,1,0.6,1.7,0.2s1.9-1.6,2.4-2.5c0.5-0.9,1.2-2,1.2-2s1.2-0.5,3.3-0.9c1.9-0.4,3.5-0.7,3.8-0.7c0.6,0.4,1.3,0.6,2.1,0.9
			c2,0.7,2.3,0.7,3,0.7s1.1-0.4,1.1-0.6S29,18.8,29,18.8s-0.2,0.8-2.9-0.2c-0.7-0.2-1.2-0.4-1.7-0.6c0.6-0.1,1.4-0.1,2.2-0.1
			c2.2,0,2.5,0.6,2.4,0.6c0.4-1-1.3-1.3-2.8-1.3c-1,0-2.2,0.2-3,0.3c-0.8-0.5-1.5-1.1-2.4-2.2c-0.8-0.9-1.3-2-1.6-3
			C19.5,11.2,19.7,9.9,19.5,9.2L19.5,9.2z M22.1,17.7c-0.7,0.1-1.7,0.3-2.9,0.7c-2.1,0.7-3.1,1-3.1,1s1.1-1.9,1.5-2.8
			s1.1-2.4,1.2-2.7c0.3,0.5,0.6,1.1,1.2,1.8C20.7,16.5,21.4,17.1,22.1,17.7z"/>
	</g>
</g>
</svg>
