<?xml version="1.0" encoding="UTF-8"?>
<!-- Generator: Adobe Illustrator 21.0.2, SVG Export Plug-In . SVG Version: 6.00 Build 0)  -->
<svg version="1.1" xmlns="http://www.w3.org/2000/svg" xmlns:xlink="http://www.w3.org/1999/xlink" x="0px" y="0px" viewBox="0 0 24.3 22.6" style="enable-background:new 0 0 24.3 22.6;" xml:space="preserve">
<style type="text/css">
	.st0{fill:#14143C;}
	.st1{fill:#F8F8F8;}
	.st2{fill:#464665;}
	.st3{fill:#FFFFFF;}
	.st4{fill:#DCD2D1;}
	.st5{clip-path:url(#SVGID_14_);}
	.st6{fill:none;stroke:#464665;stroke-miterlimit:10;}
	.st7{fill:#2E99D9;}
	.st8{fill:#89899D;}
	.st9{clip-path:url(#SVGID_28_);}
	.st10{fill:#14143B;}
</style>
<g id="Lag_1">
</g>
<g id="Lag_2">
	<g>
		<rect x="3.4" y="19.1" class="st3" width="17.5" height="1.2"/>
		<rect x="3.4" y="21.3" class="st3" width="17.5" height="1.2"/>
		<path class="st3" d="M7.1,18h1.4c0.1-1,0.5-2,0.3-2.7c-0.3-0.9-1.4-1.8-2.1-2.5c-0.6-0.6-0.9-1.1-0.9-1.9c0-0.8,0.7-1.6,1.7-1.6    c1.1,0,1.8,1.1,3.2,1.1V9.1C9.8,9,9,8,7.4,8C6.5,8,5.8,8.3,5.2,8.9c-0.5,0.5-0.8,1.3-0.8,2.1c0,1.2,0.6,1.9,1.2,2.7    C6.3,14.5,7.1,15.6,7.1,18"/>
		<path class="st3" d="M21.4,9.9c0.6,0,1.6,0.4,1.6,1.6c0,1-0.8,1.5-1.1,1.8c-0.8,0.8-1.7,1.5-2.1,2.2c-0.4,0.7-0.1,1.8-0.1,2.4h1.3    c0.1-1.7,0.9-2.6,1.7-3.5c0.8-0.8,1.7-1.6,1.7-3c0-2.1-1.7-2.9-2.9-2.9c-0.4,0-0.8,0.1-1.2,0.2c0.3,0.4,0.4,0.8,0.5,1.2    C20.9,10,21.1,9.9,21.4,9.9"/>
		<path class="st3" d="M13.7,10.3c1.4,0,2.1-1.1,3.2-1.1c1,0,1.7,0.8,1.7,1.6c0,0.8-0.3,1.3-0.9,1.9c-0.7,0.7-1.8,1.7-2.1,2.5    c-0.3,0.8,0.2,1.7,0.3,2.7h1.4c0-2.5,0.8-3.6,1.5-4.5c0.6-0.7,1.2-1.5,1.2-2.7c0-0.8-0.3-1.5-0.8-2.1C18.5,8.3,17.7,8,16.9,8    c-1.6,0-2.4,1-3.2,1.1V10.3z"/>
		<path class="st3" d="M11.5,8.1v3.7c0,0,0,0,0,0c0,2.4-0.6,3-0.6,3.8c0,1,0.4,1.3,0.6,2.4c0,0,0,0,0,0l0,0h1.3v0c0,0,0,0,0,0    c0.2-1.1,0.6-1.4,0.6-2.4c0-0.8-0.6-1.4-0.6-3.8c0,0,0,0,0,0V8.1H11.5z"/>
		<path class="st3" d="M11.5,3.9c-0.7,0.2-1.2,0.9-1.2,1.7c0,1,0.8,1.8,1.8,1.8c1,0,1.8-0.8,1.8-1.8c0-0.8-0.5-1.5-1.2-1.7V2.5H14    V1.4h-1.3V0h-1.2v1.4h-1.3v1.2h1.3V3.9z M12.1,4.9c0.4,0,0.7,0.3,0.7,0.7c0,0.4-0.3,0.7-0.7,0.7c-0.4,0-0.7-0.3-0.7-0.7    C11.4,5.2,11.7,4.9,12.1,4.9"/>
		<path class="st3" d="M3.4,18h1.3h0c0-0.6,0.3-1.8-0.1-2.4c-0.4-0.7-1.3-1.4-2.1-2.2c-0.3-0.3-1.1-0.9-1.1-1.8    c0-1.3,0.9-1.6,1.6-1.6c0.2,0,0.5,0,0.7,0.1c0.1-0.4,0.3-0.9,0.5-1.2C3.7,8.7,3.3,8.6,2.9,8.6C1.7,8.7,0,9.5,0,11.6    c0,1.4,0.9,2.2,1.7,3C2.5,15.5,3.3,16.3,3.4,18"/>
	</g>
</g>
</svg>