<?xml version="1.0" encoding="utf-8"?>
<!-- Generator: Adobe Illustrator 18.0.0, SVG Export Plug-In . SVG Version: 6.00 Build 0)  -->
<!DOCTYPE svg PUBLIC "-//W3C//DTD SVG 1.1//EN" "http://www.w3.org/Graphics/SVG/1.1/DTD/svg11.dtd" [
	<!ENTITY ns_extend "http://ns.adobe.com/Extensibility/1.0/">
	<!ENTITY ns_ai "http://ns.adobe.com/AdobeIllustrator/10.0/">
	<!ENTITY ns_graphs "http://ns.adobe.com/Graphs/1.0/">
	<!ENTITY ns_vars "http://ns.adobe.com/Variables/1.0/">
	<!ENTITY ns_imrep "http://ns.adobe.com/ImageReplacement/1.0/">
	<!ENTITY ns_sfw "http://ns.adobe.com/SaveForWeb/1.0/">
	<!ENTITY ns_custom "http://ns.adobe.com/GenericCustomNamespace/1.0/">
	<!ENTITY ns_adobe_xpath "http://ns.adobe.com/XPath/1.0/">
]>
<svg version="1.1" id="Large" xmlns:x="&ns_extend;" xmlns:i="&ns_ai;" xmlns:graph="&ns_graphs;"
	 xmlns="http://www.w3.org/2000/svg" xmlns:xlink="http://www.w3.org/1999/xlink" x="0px" y="0px" width="136px" height="30px"
	 viewBox="144.5 98.8 136 30" enable-background="new 144.5 98.8 136 30" xml:space="preserve">
<metadata>
	<sfw  xmlns="&ns_sfw;">
		<slices></slices>
		<sliceSourceBounds  height="30" width="136" y="235.3" x="180.5" bottomLeftOrigin="true"></sliceSourceBounds>
	</sfw>
</metadata>
<path d="M198.6,118.3c0,3.6-3.1,4.9-6.7,4.9c-2.9,0-5.5-1.1-6.5-2.5l2.4-2.1c0.7,0.6,2.4,1.6,4.3,1.6c1.5,0,2.4-0.5,2.4-1.3
	c0-0.9-1.4-1.1-3.4-1.3c-2.5-0.3-5.3-0.9-5.3-4.2c0-2.6,2.4-4.5,6.3-4.5c2.8,0,4.9,1,6.2,2.4l-2.6,2.1c-0.7-0.6-2-1.3-3.6-1.3
	c-1.4,0-2.3,0.3-2.3,1.1c0,0.9,1.4,1,3.3,1.2C195.9,114.7,198.6,115.4,198.6,118.3z M214.7,109.1h-4.8l-5,5.2v-10.7l-4.2,0.9v18.5
	h4.2v-4.5l1.6-1.5l3.9,5.9h4.8l-5.7-8.7L214.7,109.1z M225.7,109.1h4.3v13.8h-4.3v-1.1c-1,0.9-2.3,1.4-4,1.4c-3.4,0-6.8-2.6-6.8-7.2
	c0-4.7,3.4-7.2,6.9-7.2c1.7,0,3.1,0.6,3.9,1.4V109.1z M225.7,113.6c-0.8-0.6-1.8-1.1-3.2-1.1c-1.8,0-3.4,1.4-3.4,3.5
	c0,2.1,1.6,3.6,3.5,3.6c1.3,0,2.4-0.7,3.1-1.3V113.6z M241.6,109.1h-2.9v-4.1l-4.3,0.5v3.6h-2.6v3.4h2.6v10.5h4.3v-10.5h2.9V109.1z
	 M244.1,118.2c-1.4,0-2.5,1.1-2.5,2.5c0,1.4,1.1,2.5,2.5,2.5s2.5-1.1,2.5-2.5C246.6,119.4,245.5,118.2,244.1,118.2z M258.9,104.6
	l4.3-0.9v19.3h-4.3v-1.2c-1.1,0.9-2.4,1.4-4,1.4c-3.4,0-6.8-2.6-6.8-7.2c0-4.7,3.4-7.2,7.1-7.2c1.4,0,2.7,0.4,3.7,1.1V104.6z
	 M258.9,113.6c-0.8-0.6-1.9-1.1-3-1.1c-2.1,0-3.6,1.4-3.6,3.5c0,2.1,1.6,3.6,3.5,3.6c1.2,0,2.3-0.6,3.1-1.3L258.9,113.6L258.9,113.6
	z M274.8,114.3l5.2-5.2h-4.8l-5,5.2v-10.7l-4.2,0.9v18.5h4.2v-4.5l1.6-1.5l3.9,5.9h4.8L274.8,114.3z M176.5,128.7h1.2v-30h-1.2
	V128.7z M149.2,118.4L149.2,118.4c0-0.6,0.3-1.8-0.1-2.4c-0.4-0.7-1.4-1.4-2.2-2.3c-0.4-0.4-1.1-0.9-1.1-1.9c0-1.3,0.9-1.6,1.6-1.6
	c0.2,0,0.4,0,0.7,0.1c0.1-0.4,0.3-0.9,0.6-1.2c-0.4-0.1-0.8-0.2-1.2-0.2c-1.2,0-3,0.9-3,3c0,1.4,0.9,2.2,1.7,3
	c0.9,0.9,1.6,1.8,1.8,3.6C148,118.4,149.2,118.4,149.2,118.4z M147.9,120.7h17.8v-1.3h-17.8C147.9,119.4,147.9,120.7,147.9,120.7z
	 M147.9,123h17.8v-1.3h-17.8C147.9,121.7,147.9,123,147.9,123z M151.7,118.4h1.4c0.1-1.1,0.6-2,0.3-2.8c-0.3-0.9-1.4-1.9-2.1-2.6
	c-0.6-0.6-0.9-1.1-0.9-1.9c0-0.9,0.7-1.6,1.7-1.6c1.1,0,1.9,1.1,3.3,1.1v-1.3c-0.9-0.1-1.6-1.1-3.3-1.1c-0.9,0-1.6,0.3-2.2,0.9
	c-0.5,0.6-0.9,1.3-0.9,2.1c0,1.2,0.6,2,1.1,2.7C150.9,114.8,151.7,115.9,151.7,118.4z M166.3,108.8c-0.4,0-0.8,0.1-1.2,0.2
	c0.3,0.4,0.4,0.8,0.6,1.2c0.2-0.1,0.4-0.1,0.7-0.1c0.6,0,1.6,0.4,1.6,1.6c0,1-0.8,1.5-1.1,1.9c-0.9,0.8-1.8,1.5-2.2,2.3
	c-0.4,0.6-0.1,1.8-0.1,2.4h1.3c0.1-1.8,0.9-2.6,1.8-3.6c0.8-0.8,1.7-1.6,1.7-3C169.2,109.7,167.5,108.8,166.3,108.8z M158.4,110.5
	c1.4,0,2.1-1.1,3.3-1.1c1,0,1.7,0.8,1.7,1.6c0,0.8-0.4,1.3-0.9,1.9c-0.7,0.8-1.9,1.7-2.1,2.6c-0.3,0.8,0.1,1.7,0.3,2.8h1.4
	c-0.1-2.5,0.8-3.7,1.5-4.6c0.6-0.7,1.1-1.5,1.1-2.7c0-0.8-0.3-1.6-0.9-2.1c-0.6-0.6-1.4-0.9-2.2-0.9c-1.6,0-2.4,1-3.3,1.1
	L158.4,110.5L158.4,110.5z M157.5,118.4L157.5,118.4L157.5,118.4c0.2-1.1,0.6-1.4,0.6-2.5c0-0.8-0.6-1.4-0.6-3.9l0,0v-3.8h-1.4v3.8
	l0,0c0,2.4-0.6,3-0.6,3.9c0,1,0.4,1.4,0.6,2.5l0,0l0,0C156.2,118.4,157.5,118.4,157.5,118.4z M156.2,102.5h-1.4v-1.2h1.4V100h1.2
	v1.4h1.4v1.2h-1.4v1.4c0.7,0.2,1.2,0.9,1.2,1.7c0,1-0.9,1.9-1.9,1.9c-1,0-1.9-0.9-1.9-1.9c0-0.8,0.5-1.5,1.2-1.7L156.2,102.5
	L156.2,102.5z M156.2,105.6c0,0.4,0.3,0.7,0.7,0.7c0.4,0,0.7-0.3,0.7-0.7c0-0.4-0.3-0.7-0.7-0.7S156.2,105.3,156.2,105.6z"/>
</svg>
